<svg width="84" height="88" viewBox="0 0 84 88" fill="none" xmlns="http://www.w3.org/2000/svg">
<g clip-path="url(#clip0_4_10)" filter="url(#filter0_d_4_10)">
<path d="M37.93 0.510348C38.5036 0.175619 39.1559 -0.000762939 39.82 -0.000762939C40.4841 -0.000762939 41.1364 0.175619 41.71 0.510348L72.78 18.6353C73.3471 18.9651 73.8178 19.4378 74.145 20.0064C74.4723 20.5749 74.6447 21.2194 74.645 21.8753V58.1253C74.6447 58.7813 74.4723 59.4258 74.145 59.9943C73.8178 60.5629 73.3471 61.0356 72.78 61.3653L41.71 79.4903C41.1364 79.8251 40.4841 80.0015 39.82 80.0015C39.1559 80.0015 38.5036 79.8251 37.93 79.4903L6.86 61.3653C6.29383 61.035 5.82416 60.562 5.4978 59.9935C5.17144 59.425 4.99981 58.7809 5 58.1253V21.8753C4.99981 21.2198 5.17144 20.5757 5.4978 20.0072C5.82416 19.4387 6.29383 18.9657 6.86 18.6353L37.93 0.510348ZM39.82 71.9103L67.145 55.9703V24.0303L39.82 8.09035L12.5 24.0303V55.9703L39.82 71.9103Z" fill="#1C1D1F"/>
<g filter="url(#filter1_d_4_10)">
<path d="M40 27.5C37.9318 27.5004 35.8961 28.014 34.0752 28.9946C32.2543 29.9753 30.7052 31.3925 29.5667 33.1191C28.4282 34.8457 27.736 36.8279 27.552 38.8879C27.3679 40.9478 27.6979 43.0213 28.5124 44.9224C29.3268 46.8234 30.6002 48.4927 32.2184 49.7806C33.8367 51.0685 35.7492 51.9347 37.7846 52.3017C39.8199 52.6686 41.9145 52.5248 43.8807 51.8831C45.8468 51.2415 47.623 50.122 49.05 48.625C49.3898 48.2685 49.7965 47.9823 50.2469 47.783C50.6972 47.5836 51.1825 47.4749 51.6748 47.4631C52.1672 47.4512 52.6571 47.5365 53.1166 47.714C53.576 47.8915 53.996 48.1577 54.3525 48.4975C54.709 48.8373 54.9952 49.244 55.1945 49.6944C55.3939 50.1447 55.5026 50.63 55.5144 51.1223C55.5263 51.6147 55.441 52.1046 55.2635 52.5641C55.086 53.0235 54.8198 53.4435 54.48 53.8C51.7248 56.6907 48.1673 58.6904 44.2656 59.5416C40.364 60.3927 36.2969 60.0564 32.588 58.5759C28.8792 57.0954 25.6985 54.5385 23.4555 51.2345C21.2125 47.9305 20.01 44.0307 20.0028 40.0373C19.9955 36.0439 21.184 32.1398 23.415 28.8277C25.646 25.5156 28.8174 22.9472 32.5209 21.4533C36.2243 19.9594 40.2902 19.6084 44.1949 20.4454C48.0996 21.2825 51.6643 23.2693 54.43 26.15C55.1196 26.8674 55.4959 27.8294 55.4762 28.8242C55.4565 29.8191 55.0424 30.7654 54.325 31.455C53.6076 32.1446 52.6456 32.5209 51.6508 32.5012C50.6559 32.4815 49.7096 32.0674 49.02 31.35C47.8555 30.131 46.4556 29.1612 44.9051 28.4994C43.3546 27.8376 41.6858 27.4976 40 27.5Z" fill="#2980B9"/>
<path d="M39.9996 27C37.8488 27.0005 35.7317 27.5346 33.8381 28.5544C31.9444 29.5743 30.3333 31.0482 29.1493 32.8439C27.9653 34.6396 27.2453 36.701 27.0539 38.8434C26.8626 40.9857 27.2058 43.1421 28.0528 45.1192C28.8998 47.0964 30.2241 48.8324 31.9071 50.1718C33.5901 51.5112 35.5791 52.4121 37.6959 52.7938C39.8126 53.1754 41.991 53.0258 44.0358 52.3585C46.0806 51.6911 47.9278 50.5269 49.4119 48.97L49.412 48.97C49.7065 48.6609 50.0589 48.413 50.4493 48.2402C50.8396 48.0674 51.2601 47.9732 51.6869 47.9629C52.1136 47.9527 52.5382 48.0266 52.9364 48.1804C53.3346 48.3342 53.6985 48.565 54.0075 48.8595C54.3166 49.154 54.5645 49.5064 54.7373 49.8968C54.9101 50.2871 55.0043 50.7076 55.0146 51.1344C55.0248 51.5611 54.9509 51.9857 54.7971 52.3839C54.6433 52.7821 54.4125 53.146 54.118 53.4551C51.4317 56.2735 47.9632 58.2231 44.159 59.053C40.3549 59.8829 36.3895 59.555 32.7734 58.1115C29.1573 56.668 26.0561 54.1751 23.8692 50.9537C21.6823 47.7323 20.5098 43.93 20.5028 40.0364C20.4957 36.1428 21.6544 32.3363 23.8297 29.107C26.0049 25.8777 29.0971 23.3736 32.7079 21.917C36.3188 20.4604 40.283 20.1182 44.0901 20.9343C47.8972 21.7505 51.3728 23.6876 54.0693 26.4963L54.0695 26.4965C54.6672 27.1183 54.9934 27.9521 54.9763 28.8144C54.9592 29.6767 54.6003 30.4969 53.9785 31.0945C53.3567 31.6922 52.5229 32.0184 51.6606 32.0013C50.7986 31.9842 49.9785 31.6255 49.3809 31.004C48.1698 29.7363 46.7138 28.7278 45.1013 28.0396C43.4887 27.3512 41.753 26.9976 39.9996 27ZM39.9996 27C39.9995 27 39.9994 27 39.9993 27L40 27.5L39.9999 27C39.9998 27 39.9997 27 39.9996 27Z" stroke="black"/>
</g>
</g>
<defs>
<filter id="filter0_d_4_10" x="0" y="0" width="89" height="88" filterUnits="userSpaceOnUse" color-interpolation-filters="sRGB">
<feFlood flood-opacity="0" result="BackgroundImageFix"/>
<feColorMatrix in="SourceAlpha" type="matrix" values="0 0 0 0 0 0 0 0 0 0 0 0 0 0 0 0 0 0 127 0" result="hardAlpha"/>
<feOffset dx="5" dy="4"/>
<feGaussianBlur stdDeviation="2"/>
<feComposite in2="hardAlpha" operator="out"/>
<feColorMatrix type="matrix" values="0 0 0 0 0 0 0 0 0 0 0 0 0 0 0 0 0 0 0.25 0"/>
<feBlend mode="normal" in2="BackgroundImageFix" result="effect1_dropShadow_4_10"/>
<feBlend mode="normal" in="SourceGraphic" in2="effect1_dropShadow_4_10" result="shape"/>
</filter>
<filter id="filter1_d_4_10" x="16.0027" y="20.0011" width="43.5128" height="48" filterUnits="userSpaceOnUse" color-interpolation-filters="sRGB">
<feFlood flood-opacity="0" result="BackgroundImageFix"/>
<feColorMatrix in="SourceAlpha" type="matrix" values="0 0 0 0 0 0 0 0 0 0 0 0 0 0 0 0 0 0 127 0" result="hardAlpha"/>
<feOffset dy="4"/>
<feGaussianBlur stdDeviation="2"/>
<feComposite in2="hardAlpha" operator="out"/>
<feColorMatrix type="matrix" values="0 0 0 0 0 0 0 0 0 0 0 0 0 0 0 0 0 0 0.25 0"/>
<feBlend mode="normal" in2="BackgroundImageFix" result="effect1_dropShadow_4_10"/>
<feBlend mode="normal" in="SourceGraphic" in2="effect1_dropShadow_4_10" result="shape"/>
</filter>
<clipPath id="clip0_4_10">
<rect width="80" height="80" fill="white"/>
</clipPath>
</defs>
</svg>
